<?xml version="1.0" encoding="utf-8"?>
<!-- Generator: Adobe Illustrator 25.4.1, SVG Export Plug-In . SVG Version: 6.00 Build 0)  -->
<svg version="1.1" id="Layer_1" xmlns="http://www.w3.org/2000/svg" xmlns:xlink="http://www.w3.org/1999/xlink" x="0px" y="0px"
	 viewBox="0 0 217.1 35" style="enable-background:new 0 0 217.1 35;" xml:space="preserve">
<style type="text/css">
	.st0{fill:#4098F9;}
	.st1{fill:#FFFFFF;}
</style>
<g>
	<g>
		<g>
			<ellipse class="st0" cx="17.5" cy="17.5" rx="17.5" ry="17.5"/>
		</g>
		<path class="st1" d="M20.7,11.1h-4.1l4.6,6.4l-4.6,6.4h4.1l4.6-6.4L20.7,11.1z"/>
		<path class="st1" d="M14.3,11.1h-4.1l4.6,6.4l-4.6,6.4h4.1l4.6-6.4L14.3,11.1z"/>
	</g>
	<g>
		<path class="st1" d="M51,25.9V9h6.1c0.9,0,1.7,0.1,2.4,0.4c0.8,0.3,1.4,0.6,1.9,1.1s1,1,1.3,1.7s0.5,1.4,0.5,2.2S63,16,62.7,16.6
			c-0.2,0.8-0.7,1.4-1.2,1.9s-1.2,0.8-1.9,1.1c-0.7,0.3-1.5,0.4-2.4,0.4h-2.4v5.9H51z M57.4,16.5c0.8,0,1.4-0.2,1.7-0.6
			c0.3-0.4,0.5-0.9,0.5-1.4s-0.2-1.1-0.6-1.4c-0.4-0.4-1-0.6-1.7-0.6h-2.5v4H57.4z"/>
		<path class="st1" d="M65.1,14.3h3.4v1.5h0.2c0.3-0.5,0.8-0.9,1.4-1.3c0.6-0.3,1.2-0.5,2-0.5c0.4,0,0.8,0.1,1.1,0.2
			c0.3,0.1,0.6,0.2,0.8,0.3l-0.9,3.1c-0.2-0.1-0.4-0.2-0.7-0.3c-0.2-0.1-0.5-0.1-0.9-0.1c-0.9,0-1.6,0.3-2.1,0.9s-0.7,1.4-0.7,2.4
			v5.3h-3.6C65.2,25.8,65.2,14.3,65.1,14.3z"/>
		<path class="st1" d="M86,23.1c-0.6,1-1.3,1.8-2.3,2.3c-0.9,0.6-2.1,0.8-3.4,0.8c-0.9,0-1.8-0.1-2.5-0.4c-0.8-0.3-1.4-0.7-2-1.3
			s-1-1.2-1.3-1.9C74.2,21.8,74,21,74,20.1c0-0.8,0.2-1.6,0.5-2.4s0.8-1.4,1.3-2c0.6-0.6,1.2-1,2-1.3s1.6-0.5,2.5-0.5
			c1,0,1.8,0.2,2.6,0.5c0.8,0.3,1.4,0.7,1.9,1.3c0.5,0.5,0.9,1.2,1.1,1.9c0.3,0.7,0.4,1.5,0.4,2.3c0,0.1,0,0.3,0,0.4s0,0.2,0,0.3
			s0,0.2,0,0.3h-8.8c0.2,0.8,0.5,1.3,1.1,1.7c0.5,0.3,1.1,0.5,1.8,0.5c0.7,0,1.2-0.1,1.7-0.4c0.4-0.3,0.8-0.6,1.1-1.1L86,23.1z
			 M82.8,18.6c0-0.2-0.1-0.4-0.2-0.6s-0.3-0.4-0.5-0.6s-0.5-0.3-0.8-0.4s-0.6-0.2-1-0.2c-0.6,0-1.1,0.2-1.6,0.5s-0.8,0.8-1.1,1.4
			L82.8,18.6L82.8,18.6z"/>
		<path class="st1" d="M91.5,15.6h0.2c0.3-0.5,0.7-0.8,1.2-1.2c0.6-0.3,1.3-0.5,2.2-0.5c0.8,0,1.5,0.1,2.2,0.4s1.3,0.7,1.8,1.3
			c0.5,0.5,0.9,1.2,1.2,1.9c0.3,0.8,0.5,1.6,0.5,2.5s-0.2,1.7-0.5,2.5s-0.7,1.4-1.2,2c-0.5,0.5-1.1,1-1.8,1.3
			c-0.7,0.3-1.4,0.4-2.2,0.4c-0.9,0-1.6-0.2-2.2-0.5s-1-0.7-1.2-1.2h-0.2l0.2,1.7V31h-3.6V14.3h3.4V15.6z M94.4,17.3
			c-0.4,0-0.8,0.1-1.1,0.2c-0.3,0.1-0.6,0.3-0.9,0.6s-0.5,0.6-0.6,0.9s-0.2,0.7-0.2,1.2c0,0.4,0.1,0.8,0.2,1.2
			c0.2,0.3,0.4,0.6,0.6,0.9c0.3,0.2,0.6,0.4,0.9,0.6c0.4,0.1,0.7,0.2,1.1,0.2s0.7-0.1,1.1-0.2s0.7-0.3,0.9-0.6
			c0.3-0.3,0.5-0.6,0.6-0.9c0.2-0.4,0.2-0.8,0.2-1.2S97.1,19.4,97,19c-0.1-0.3-0.4-0.6-0.6-0.9c-0.3-0.3-0.6-0.4-0.9-0.6
			C95.1,17.3,94.7,17.3,94.4,17.3z"/>
		<path class="st1" d="M108.2,9h4.3l6.4,16.9h-4.1l-1.3-3.8h-6.3l-1.3,3.8h-4.1L108.2,9z M112.4,18.8l-1.2-3.5l-0.6-2.1h-0.2
			l-0.6,2.1l-1.2,3.5H112.4z"/>
		<path class="st1" d="M123.9,15.8h0.2c0.8-1.2,2-1.8,3.6-1.8c1.5,0,2.6,0.5,3.3,1.4s1.1,2.1,1.1,3.7V26h-3.6v-6.5
			c0-0.6-0.2-1.1-0.5-1.5c-0.3-0.4-0.8-0.6-1.4-0.6c-0.8,0-1.4,0.3-1.9,0.9c-0.4,0.6-0.6,1.4-0.6,2.4V26h-3.6V14.3h3.4V15.8z"/>
		<path class="st1" d="M138.2,25.4l-5-11.1h4.1l2.7,6.4h0.2l2.6-6.4h4L139.6,31h-3.9L138.2,25.4z"/>
		<path class="st1" d="M147.2,14.3h4.1l1.6,6.5h0.2l2.1-6.5h3.7l2.1,6.5h0.2l1.6-6.5h4.1l-3.7,11.6h-3.9l-2.1-6.5H157l-2.1,6.5H151
			L147.2,14.3z"/>
		<path class="st1" d="M168.2,9h3.6v4.4l-0.2,2.4h0.2c0.4-0.6,0.9-1,1.5-1.3s1.3-0.5,2.1-0.5c1.5,0,2.6,0.4,3.3,1.3s1.1,2.1,1.1,3.7
			v6.9h-3.6v-6.5c0-0.6-0.2-1.1-0.5-1.5s-0.8-0.6-1.4-0.6c-0.8,0-1.4,0.3-1.9,0.9c-0.4,0.6-0.6,1.4-0.6,2.4v5.3h-3.6L168.2,9
			L168.2,9z"/>
		<path class="st1" d="M193.7,23.1c-0.6,1-1.3,1.8-2.3,2.3c-0.9,0.6-2.1,0.8-3.4,0.8c-0.9,0-1.8-0.1-2.5-0.4c-0.8-0.3-1.4-0.7-2-1.3
			s-1-1.2-1.3-1.9c-0.3-0.8-0.5-1.6-0.5-2.5c0-0.8,0.2-1.6,0.5-2.4s0.8-1.4,1.3-2c0.6-0.6,1.2-1,2-1.3s1.6-0.5,2.5-0.5
			c1,0,1.8,0.2,2.6,0.5s1.4,0.7,1.9,1.3c0.5,0.5,0.9,1.2,1.1,1.9c0.3,0.7,0.4,1.5,0.4,2.3c0,0.1,0,0.3,0,0.4s0,0.2,0,0.3
			s0,0.2,0,0.3h-8.6c0.2,0.8,0.5,1.3,1.1,1.7c0.5,0.3,1.1,0.5,1.8,0.5s1.2-0.1,1.7-0.4c0.4-0.3,0.8-0.6,1.1-1.1L193.7,23.1z
			 M190.5,18.6c0-0.2-0.1-0.4-0.2-0.6c-0.1-0.2-0.3-0.4-0.5-0.6s-0.5-0.3-0.8-0.4s-0.6-0.2-1-0.2c-0.6,0-1.1,0.2-1.6,0.5
			s-0.8,0.8-1.1,1.4L190.5,18.6L190.5,18.6L190.5,18.6z"/>
		<path class="st1" d="M195.9,14.3h3.4v1.5h0.2c0.3-0.5,0.8-0.9,1.4-1.3c0.6-0.3,1.2-0.5,2-0.5c0.4,0,0.8,0.1,1.1,0.2
			s0.6,0.2,0.8,0.3l-0.9,3.1c-0.2-0.1-0.4-0.2-0.7-0.3c-0.2-0.1-0.5-0.1-0.9-0.1c-0.9,0-1.6,0.3-2.1,0.9s-0.7,1.4-0.7,2.4v5.3h-3.6
			V14.3z"/>
		<path class="st1" d="M216.8,23.1c-0.6,1-1.3,1.8-2.3,2.3c-0.9,0.6-2.1,0.8-3.4,0.8c-0.9,0-1.8-0.1-2.5-0.4c-0.8-0.3-1.4-0.7-2-1.3
			s-1-1.2-1.3-1.9c-0.3-0.8-0.5-1.6-0.5-2.5c0-0.8,0.2-1.6,0.5-2.4s0.8-1.4,1.3-2c0.6-0.6,1.2-1,2-1.3s1.6-0.5,2.5-0.5
			c1,0,1.8,0.2,2.6,0.5s1.4,0.7,1.9,1.3c0.5,0.5,0.9,1.2,1.1,1.9c0.3,0.7,0.4,1.5,0.4,2.3c0,0.1,0,0.3,0,0.4s0,0.2,0,0.3
			s0,0.2,0,0.3h-8.6c0.2,0.8,0.5,1.3,1.1,1.7c0.5,0.3,1.1,0.5,1.8,0.5s1.2-0.1,1.7-0.4c0.4-0.3,0.8-0.6,1.1-1.1L216.8,23.1z
			 M213.7,18.6c0-0.2-0.1-0.4-0.2-0.6c-0.1-0.2-0.3-0.4-0.5-0.6s-0.5-0.3-0.8-0.4s-0.6-0.2-1-0.2c-0.6,0-1.1,0.2-1.6,0.5
			s-0.8,0.8-1.1,1.4L213.7,18.6L213.7,18.6L213.7,18.6z"/>
	</g>
</g>
</svg>
