<svg width="232" height="72" viewBox="0 0 1162 360" fill="none" xmlns="http://www.w3.org/2000/svg">
<rect width="232" height="72" rx="20" transform="matrix(1 0 0 -1 0 360)" fill="white"/>
<g clip-path="url(#clip0_1_448)">
<path d="M204.779 238.755C237.415 238.755 263.87 212.323 263.87 179.722C263.87 147.12 237.415 120.687 204.779 120.687C172.143 120.687 145.688 147.118 145.688 179.719C145.688 212.321 172.146 238.752 204.782 238.752L204.779 238.755Z" fill="#4098F9"/>
<path d="M204.779 240.441C171.266 240.441 144 213.2 144 179.72C144 146.239 171.266 119 204.779 119C238.293 119 265.558 146.239 265.558 179.72C265.558 213.2 238.293 240.439 204.779 240.439V240.441ZM204.779 122.375C173.128 122.373 147.377 148.1 147.377 179.72C147.377 211.339 173.128 237.066 204.779 237.066C236.43 237.066 262.182 211.339 262.182 179.72C262.182 148.1 236.432 122.373 204.779 122.373V122.375Z" fill="white"/>
<path d="M215.541 179.593L201.704 164.046C201.433 163.732 201.295 163.326 201.319 162.914C201.342 162.501 201.523 162.112 201.826 161.831C202.11 161.58 202.474 161.436 202.852 161.421H213.283C213.575 161.425 213.855 161.541 214.064 161.749L229.626 178.978C229.804 179.168 229.903 179.417 229.903 179.677C229.903 179.937 229.804 180.186 229.626 180.375L214.227 197.604C214.012 197.806 213.739 197.935 213.446 197.974H202.771C202.358 197.974 201.96 197.81 201.667 197.518C201.375 197.226 201.211 196.828 201.211 196.416C201.207 196.227 201.241 196.038 201.312 195.862C201.383 195.685 201.487 195.524 201.622 195.391L215.541 179.885C215.623 179.844 215.623 179.681 215.541 179.597V179.593Z" fill="white"/>
<path d="M193.974 179.593L180.137 164.046C179.999 163.894 179.892 163.715 179.823 163.52C179.754 163.326 179.724 163.12 179.737 162.914C179.747 162.708 179.801 162.506 179.889 162.321C179.98 162.134 180.104 161.969 180.259 161.831C180.543 161.58 180.907 161.436 181.285 161.421H191.716C192.008 161.425 192.288 161.541 192.496 161.749L208.058 178.978C208.237 179.168 208.336 179.417 208.336 179.677C208.336 179.937 208.237 180.186 208.058 180.375L192.66 197.604C192.445 197.806 192.172 197.935 191.879 197.974H181.203C180.997 197.974 180.795 197.928 180.606 197.847C180.416 197.765 180.246 197.645 180.104 197.497C179.963 197.346 179.853 197.17 179.78 196.979C179.709 196.785 179.674 196.581 179.683 196.375C179.698 195.997 179.842 195.634 180.094 195.35L194.013 179.844C194.094 179.844 194.094 179.722 193.972 179.599C194.013 179.559 194.013 179.599 193.972 179.599L193.974 179.593Z" fill="white"/>
<path d="M309.883 216.863V144.299H336.071C339.822 144.299 343.265 144.872 346.403 146.022C349.607 147.171 352.371 148.791 354.689 150.886C357.008 152.912 358.816 155.379 360.111 158.284C361.406 161.188 362.055 164.398 362.055 167.911C362.055 171.424 361.408 174.634 360.111 177.539C358.816 180.444 357.008 182.944 354.689 185.039C352.371 187.065 349.607 188.653 346.403 189.803C343.265 190.952 339.822 191.526 336.071 191.526H325.841V216.863H309.881H309.883ZM336.583 176.527C339.925 176.527 342.414 175.717 344.05 174.095C345.687 172.472 346.506 170.412 346.506 167.913C346.506 165.415 345.687 163.352 344.05 161.732C342.414 160.11 339.923 159.3 336.583 159.3H325.843V176.529H336.583V176.527Z" fill="#1B1F29"/>
<path d="M370.286 167.202H384.607V173.487H385.631C386.994 171.325 388.939 169.501 391.461 168.014C393.984 166.528 396.78 165.784 399.849 165.784C401.69 165.784 403.292 166.021 404.658 166.493C406.021 166.899 407.146 167.372 408.032 167.911L404.045 181.29C403.159 180.817 402.204 180.446 401.18 180.175C400.225 179.904 398.963 179.769 397.395 179.769C393.575 179.769 390.644 181.086 388.597 183.722C386.618 186.356 385.631 189.803 385.631 194.059V216.861H370.286V167.202Z" fill="#1B1F29"/>
<path d="M459.536 204.801C457.082 209.058 453.843 212.403 449.817 214.835C445.862 217.267 441.055 218.483 435.395 218.483C431.504 218.483 427.891 217.841 424.549 216.558C421.278 215.207 418.413 213.348 415.955 210.985C413.501 208.619 411.591 205.85 410.228 202.674C408.864 199.432 408.183 195.885 408.183 192.033C408.183 188.451 408.864 185.074 410.228 181.898C411.591 178.656 413.467 175.852 415.854 173.487C418.308 171.055 421.138 169.129 424.347 167.709C427.618 166.291 431.164 165.58 434.984 165.58C439.143 165.58 442.795 166.255 445.931 167.606C449.135 168.958 451.795 170.816 453.909 173.179C456.024 175.476 457.628 178.213 458.718 181.389C459.809 184.498 460.357 187.841 460.357 191.423C460.357 191.964 460.32 192.503 460.252 193.045C460.252 193.586 460.217 194.059 460.151 194.463C460.084 194.935 460.05 195.374 460.05 195.78H423.119C423.869 199.024 425.405 201.387 427.721 202.874C430.042 204.361 432.635 205.104 435.498 205.104C438.36 205.104 440.715 204.496 442.556 203.28C444.468 202.064 445.967 200.511 447.058 198.618L459.538 204.799L459.536 204.801ZM445.931 185.443C445.795 184.633 445.455 183.754 444.907 182.809C444.432 181.864 443.715 181.019 442.758 180.276C441.87 179.466 440.745 178.824 439.382 178.351C438.085 177.809 436.62 177.541 434.982 177.541C432.594 177.541 430.379 178.216 428.332 179.567C426.287 180.918 424.786 182.878 423.831 185.445H445.928L445.931 185.443Z" fill="#1B1F29"/>
<path d="M482.901 172.675H483.925C485.084 170.715 486.856 169.061 489.244 167.709C491.698 166.291 494.769 165.58 498.453 165.58C501.657 165.58 504.726 166.222 507.657 167.505C510.591 168.79 513.148 170.614 515.329 172.977C517.58 175.274 519.355 178.044 520.652 181.288C521.944 184.532 522.594 188.112 522.594 192.031C522.594 195.95 521.946 199.531 520.652 202.773C519.355 206.015 517.583 208.819 515.329 211.185C513.148 213.482 510.591 215.273 507.657 216.556C504.726 217.841 501.657 218.481 498.453 218.481C494.769 218.481 491.7 217.807 489.244 216.455C486.856 215.037 485.084 213.346 483.925 211.387H482.901L483.925 218.481V238.75H468.578V167.202H482.901V172.675ZM495.074 179.769C493.435 179.769 491.87 180.074 490.366 180.682C488.934 181.224 487.637 182.034 486.48 183.114C485.39 184.195 484.501 185.48 483.82 186.967C483.209 188.453 482.901 190.142 482.901 192.033C482.901 193.923 483.209 195.649 483.82 197.202C484.501 198.689 485.39 199.972 486.48 201.052C487.639 202.066 488.934 202.876 490.366 203.484C491.87 204.026 493.435 204.294 495.074 204.294C496.713 204.294 498.244 204.024 499.676 203.484C501.175 202.876 502.472 202.066 503.563 201.052C504.724 199.972 505.608 198.687 506.223 197.202C506.905 195.649 507.247 193.926 507.247 192.033C507.247 190.14 506.905 188.451 506.223 186.967C505.608 185.48 504.724 184.197 503.563 183.114C502.472 182.034 501.175 181.221 499.676 180.682C498.244 180.074 496.711 179.769 495.074 179.769Z" fill="#1B1F29"/>
<path d="M554.14 144.299H572.554L599.97 216.863H582.378L576.749 200.648H549.948L544.322 216.863H526.726L554.142 144.299H554.14ZM571.635 186.257L566.312 171.054L563.859 162.136H562.835L560.381 171.054L555.062 186.257H571.635V186.257Z" fill="#1B1F29"/>
<path d="M621.274 173.486H622.298C625.709 168.216 630.821 165.582 637.643 165.582C643.916 165.582 648.589 167.576 651.656 171.561C654.725 175.547 656.263 180.785 656.263 187.269V216.863H640.918V188.992C640.918 186.29 640.271 184.094 638.974 182.405C637.677 180.648 635.664 179.771 632.937 179.771C629.459 179.771 626.801 181.088 624.958 183.724C623.186 186.358 622.3 189.805 622.3 194.061V216.863H606.955V167.202H621.276V173.486H621.274Z" fill="#1B1F29"/>
<path d="M682.251 214.734L660.975 167.202H678.672L690.232 194.566H691.256L702.303 167.202H719.592L688.184 238.755H671.409L682.253 214.734H682.251Z" fill="#1B1F29"/>
<path d="M720.414 167.202H738.011L744.862 195.174H745.886L754.788 167.202H770.541L779.341 195.174H780.365L787.116 167.202H804.506L788.548 216.863H771.773L762.872 188.892H761.848L753.052 216.863H736.378L720.421 167.202H720.414Z" fill="#1B1F29"/>
<path d="M810.648 144.299H825.995V163.352L824.972 173.487H825.995C827.563 171.054 829.643 169.129 832.237 167.709C834.826 166.291 837.762 165.58 841.033 165.58C847.375 165.58 852.115 167.473 855.253 171.256C858.39 175.04 859.96 180.377 859.96 187.269V216.863H844.613V188.993C844.613 186.29 843.968 184.094 842.671 182.405C841.375 180.648 839.362 179.771 836.635 179.771C833.157 179.771 830.499 181.088 828.656 183.724C826.884 186.358 825.998 189.805 825.998 194.061V216.863H810.651V144.299H810.648Z" fill="#1B1F29"/>
<path d="M919.481 204.801C917.027 209.058 913.784 212.403 909.762 214.835C905.805 217.267 900.996 218.483 895.336 218.483C891.45 218.483 887.832 217.841 884.492 216.558C881.217 215.207 878.354 213.348 875.898 210.985C873.445 208.619 871.533 205.85 870.169 202.674C868.806 199.432 868.126 195.885 868.126 192.033C868.126 188.451 868.806 185.074 870.169 181.898C871.533 178.656 873.41 175.852 875.797 173.487C878.251 171.055 881.081 169.129 884.286 167.709C887.561 166.291 891.108 165.58 894.925 165.58C899.085 165.58 902.732 166.255 905.87 167.606C909.079 168.958 911.735 170.816 913.849 173.179C915.965 175.476 917.567 178.213 918.658 181.389C919.748 184.498 920.296 187.841 920.296 191.423C920.296 191.964 920.262 192.503 920.195 193.045C920.195 193.586 920.161 194.059 920.09 194.463C920.023 194.935 919.989 195.374 919.989 195.78H883.06C883.811 199.024 885.342 201.387 887.662 202.874C889.983 204.361 892.572 205.104 895.435 205.104C898.297 205.104 900.652 204.496 902.495 203.28C904.403 202.064 905.906 200.511 906.997 198.618L919.477 204.799L919.481 204.801ZM905.872 185.443C905.736 184.633 905.397 183.754 904.848 182.809C904.373 181.864 903.657 181.019 902.7 180.276C901.816 179.466 900.687 178.824 899.325 178.351C898.029 177.809 896.564 177.541 894.925 177.541C892.538 177.541 890.323 178.216 888.275 179.567C886.23 180.918 884.727 182.878 883.774 185.445H905.868L905.872 185.443Z" fill="#1B1F29"/>
<path d="M928.934 167.202H943.255V173.487H944.278C945.642 171.325 947.588 169.501 950.111 168.014C952.634 166.528 955.434 165.784 958.498 165.784C960.342 165.784 961.944 166.021 963.307 166.493C964.671 166.899 965.796 167.372 966.684 167.911L962.692 181.29C961.808 180.817 960.851 180.446 959.83 180.175C958.875 179.904 957.615 179.769 956.045 179.769C952.225 179.769 949.294 181.086 947.248 183.722C945.27 186.356 944.281 189.803 944.281 194.059V216.861H928.936V167.202H928.934Z" fill="#1B1F29"/>
<path d="M1018.18 204.801C1015.73 209.058 1012.49 212.403 1008.46 214.835C1004.51 217.267 999.698 218.483 994.037 218.483C990.151 218.483 986.534 217.841 983.194 216.558C979.918 215.207 977.056 213.348 974.6 210.985C972.144 208.619 970.234 205.85 968.868 202.674C967.505 199.432 966.825 195.885 966.825 192.033C966.825 188.451 967.505 185.074 968.868 181.898C970.232 178.656 972.109 175.852 974.497 173.487C976.95 171.055 979.781 169.129 982.985 167.709C986.261 166.291 989.807 165.58 993.624 165.58C997.784 165.58 1001.43 166.255 1004.57 167.606C1007.78 168.958 1010.43 170.816 1012.55 173.179C1014.66 175.476 1016.27 178.213 1017.36 181.389C1018.45 184.498 1018.99 187.841 1018.99 191.423C1018.99 191.964 1018.96 192.503 1018.89 193.045C1018.89 193.586 1018.86 194.059 1018.79 194.463C1018.72 194.935 1018.69 195.374 1018.69 195.78H981.757C982.508 199.024 984.039 201.387 986.359 202.874C988.68 204.361 991.269 205.104 994.132 205.104C996.994 205.104 999.349 204.496 1001.19 203.28C1003.1 202.064 1004.6 200.511 1005.69 198.618L1018.17 204.799L1018.18 204.801ZM1004.57 185.443C1004.44 184.633 1004.1 183.754 1003.55 182.809C1003.07 181.864 1002.36 181.019 1001.4 180.276C1000.52 179.466 999.388 178.824 998.027 178.351C996.73 177.809 995.265 177.541 993.626 177.541C991.239 177.541 989.024 178.216 986.977 179.567C984.931 180.918 983.428 182.878 982.475 185.445H1004.57L1004.57 185.443Z" fill="#1B1F29"/>
</g>
<defs>
<clipPath id="clip0_1_448">
<rect width="875" height="121.441" fill="white" transform="translate(144 119)"/>
</clipPath>
</defs>
</svg>
