<svg xmlns="http://www.w3.org/2000/svg" xmlns:xlink="http://www.w3.org/1999/xlink" width="500" zoomAndPan="magnify" viewBox="0 0 375 374.999991" height="500" preserveAspectRatio="xMidYMid meet" version="1.0"><rect x="-37.5" width="450" fill="#ffffff" y="-37.499999" height="449.999989" fill-opacity="1"/><rect x="-37.5" width="450" fill="#ffffff" y="-37.499999" height="449.999989" fill-opacity="1"/><path fill="#000000" d="M 310 372 L 62 372 C 59.96875 371.996094 57.945312 371.898438 55.925781 371.695312 C 53.90625 371.496094 51.898438 371.195312 49.910156 370.796875 C 47.917969 370.402344 45.953125 369.90625 44.007812 369.316406 C 42.066406 368.726562 40.160156 368.042969 38.285156 367.265625 C 36.40625 366.484375 34.574219 365.617188 32.785156 364.660156 C 30.996094 363.703125 29.257812 362.660156 27.570312 361.53125 C 25.882812 360.402344 24.253906 359.195312 22.683594 357.90625 C 21.113281 356.621094 19.613281 355.257812 18.175781 353.824219 C 16.742188 352.386719 15.378906 350.886719 14.09375 349.316406 C 12.804688 347.746094 11.597656 346.117188 10.46875 344.429688 C 9.339844 342.742188 8.296875 341.003906 7.339844 339.214844 C 6.382812 337.425781 5.515625 335.59375 4.734375 333.714844 C 3.957031 331.839844 3.273438 329.933594 2.683594 327.992188 C 2.09375 326.046875 1.597656 324.082031 1.203125 322.089844 C 0.804688 320.101562 0.503906 318.09375 0.304688 316.074219 C 0.101562 314.054688 0.00390625 312.03125 0 310 L 0 62 C 0.00390625 59.96875 0.101562 57.945312 0.304688 55.925781 C 0.503906 53.90625 0.804688 51.898438 1.203125 49.910156 C 1.597656 47.917969 2.09375 45.953125 2.683594 44.007812 C 3.273438 42.066406 3.957031 40.160156 4.734375 38.285156 C 5.515625 36.40625 6.382812 34.574219 7.339844 32.785156 C 8.296875 30.996094 9.339844 29.257812 10.46875 27.570312 C 11.597656 25.882812 12.804688 24.253906 14.09375 22.683594 C 15.378906 21.113281 16.742188 19.613281 18.175781 18.175781 C 19.613281 16.742188 21.113281 15.378906 22.683594 14.09375 C 24.253906 12.804688 25.882812 11.597656 27.570312 10.46875 C 29.257812 9.339844 30.996094 8.296875 32.785156 7.339844 C 34.574219 6.382812 36.40625 5.515625 38.285156 4.734375 C 40.160156 3.957031 42.066406 3.273438 44.007812 2.683594 C 45.953125 2.09375 47.917969 1.597656 49.910156 1.203125 C 51.898438 0.804688 53.90625 0.503906 55.925781 0.304688 C 57.945312 0.101562 59.96875 0.00390625 62 0 L 310 0 C 312.03125 0.00390625 314.054688 0.101562 316.074219 0.304688 C 318.09375 0.503906 320.101562 0.804688 322.089844 1.203125 C 324.082031 1.597656 326.046875 2.09375 327.992188 2.683594 C 329.933594 3.273438 331.839844 3.957031 333.714844 4.734375 C 335.59375 5.515625 337.425781 6.382812 339.214844 7.339844 C 341.003906 8.296875 342.742188 9.339844 344.429688 10.46875 C 346.117188 11.597656 347.746094 12.804688 349.316406 14.09375 C 350.886719 15.378906 352.386719 16.742188 353.824219 18.175781 C 355.257812 19.613281 356.621094 21.113281 357.90625 22.683594 C 359.195312 24.253906 360.402344 25.882812 361.53125 27.570312 C 362.660156 29.257812 363.703125 30.996094 364.660156 32.785156 C 365.617188 34.574219 366.484375 36.40625 367.265625 38.285156 C 368.042969 40.160156 368.726562 42.066406 369.316406 44.007812 C 369.90625 45.953125 370.402344 47.917969 370.796875 49.910156 C 371.195312 51.898438 371.496094 53.90625 371.695312 55.925781 C 371.898438 57.945312 371.996094 59.96875 372 62 L 372 310 C 371.996094 312.03125 371.898438 314.054688 371.695312 316.074219 C 371.496094 318.09375 371.195312 320.101562 370.796875 322.089844 C 370.402344 324.082031 369.90625 326.046875 369.316406 327.992188 C 368.726562 329.933594 368.042969 331.839844 367.265625 333.714844 C 366.484375 335.589844 365.617188 337.425781 364.660156 339.214844 C 363.703125 341.003906 362.660156 342.742188 361.53125 344.429688 C 360.402344 346.117188 359.195312 347.746094 357.90625 349.316406 C 356.621094 350.886719 355.257812 352.386719 353.824219 353.824219 C 352.386719 355.257812 350.886719 356.621094 349.316406 357.90625 C 347.746094 359.195312 346.117188 360.402344 344.429688 361.53125 C 342.742188 362.660156 341.003906 363.703125 339.214844 364.660156 C 337.425781 365.617188 335.59375 366.484375 333.714844 367.265625 C 331.839844 368.042969 329.933594 368.726562 327.992188 369.316406 C 326.046875 369.90625 324.082031 370.402344 322.089844 370.796875 C 320.101562 371.195312 318.09375 371.496094 316.074219 371.695312 C 314.054688 371.898438 312.03125 371.996094 310 372 Z M 62 41.332031 C 61.324219 41.332031 60.648438 41.367188 59.972656 41.433594 C 59.300781 41.5 58.632812 41.597656 57.96875 41.730469 C 57.304688 41.863281 56.648438 42.027344 56 42.222656 C 55.351562 42.417969 54.714844 42.648438 54.089844 42.90625 C 53.464844 43.164062 52.855469 43.453125 52.257812 43.773438 C 51.660156 44.09375 51.082031 44.441406 50.519531 44.816406 C 49.957031 45.191406 49.414062 45.59375 48.890625 46.023438 C 48.367188 46.453125 47.863281 46.90625 47.386719 47.386719 C 46.90625 47.863281 46.453125 48.367188 46.023438 48.890625 C 45.59375 49.414062 45.191406 49.957031 44.816406 50.519531 C 44.441406 51.082031 44.09375 51.660156 43.773438 52.257812 C 43.453125 52.855469 43.164062 53.464844 42.90625 54.089844 C 42.648438 54.714844 42.417969 55.351562 42.222656 56 C 42.027344 56.648438 41.863281 57.304688 41.730469 57.96875 C 41.597656 58.632812 41.5 59.300781 41.433594 59.972656 C 41.367188 60.648438 41.332031 61.324219 41.332031 62 L 41.332031 310 C 41.332031 310.675781 41.367188 311.351562 41.433594 312.027344 C 41.5 312.699219 41.597656 313.367188 41.730469 314.03125 C 41.863281 314.695312 42.027344 315.351562 42.222656 316 C 42.417969 316.648438 42.648438 317.285156 42.90625 317.910156 C 43.164062 318.535156 43.453125 319.144531 43.773438 319.742188 C 44.09375 320.339844 44.441406 320.917969 44.816406 321.480469 C 45.191406 322.042969 45.59375 322.585938 46.023438 323.109375 C 46.453125 323.632812 46.90625 324.136719 47.386719 324.613281 C 47.863281 325.09375 48.367188 325.546875 48.890625 325.976562 C 49.414062 326.40625 49.957031 326.808594 50.519531 327.183594 C 51.082031 327.558594 51.660156 327.90625 52.257812 328.226562 C 52.855469 328.546875 53.464844 328.835938 54.089844 329.09375 C 54.714844 329.351562 55.351562 329.582031 56 329.777344 C 56.648438 329.972656 57.304688 330.136719 57.96875 330.269531 C 58.632812 330.402344 59.300781 330.5 59.972656 330.566406 C 60.648438 330.632812 61.324219 330.667969 62 330.667969 L 310 330.667969 C 310.675781 330.667969 311.351562 330.632812 312.027344 330.566406 C 312.699219 330.5 313.367188 330.402344 314.03125 330.269531 C 314.695312 330.136719 315.351562 329.972656 316 329.777344 C 316.648438 329.582031 317.285156 329.351562 317.910156 329.09375 C 318.535156 328.835938 319.144531 328.546875 319.742188 328.226562 C 320.339844 327.90625 320.917969 327.558594 321.480469 327.183594 C 322.042969 326.808594 322.585938 326.40625 323.109375 325.976562 C 323.632812 325.546875 324.136719 325.09375 324.613281 324.613281 C 325.09375 324.136719 325.546875 323.632812 325.976562 323.109375 C 326.40625 322.585938 326.808594 322.042969 327.183594 321.480469 C 327.558594 320.917969 327.90625 320.339844 328.226562 319.742188 C 328.546875 319.144531 328.835938 318.535156 329.09375 317.910156 C 329.351562 317.285156 329.582031 316.648438 329.777344 316 C 329.972656 315.351562 330.136719 314.695312 330.269531 314.03125 C 330.402344 313.367188 330.5 312.699219 330.566406 312.027344 C 330.632812 311.351562 330.667969 310.675781 330.667969 310 L 330.667969 62 C 330.667969 61.324219 330.632812 60.648438 330.566406 59.972656 C 330.5 59.300781 330.402344 58.632812 330.269531 57.96875 C 330.136719 57.304688 329.972656 56.648438 329.777344 56 C 329.582031 55.351562 329.351562 54.714844 329.09375 54.089844 C 328.835938 53.464844 328.546875 52.855469 328.226562 52.257812 C 327.90625 51.660156 327.558594 51.082031 327.183594 50.519531 C 326.808594 49.957031 326.40625 49.414062 325.976562 48.890625 C 325.546875 48.367188 325.09375 47.863281 324.613281 47.386719 C 324.136719 46.90625 323.632812 46.453125 323.109375 46.023438 C 322.585938 45.59375 322.042969 45.191406 321.480469 44.816406 C 320.917969 44.441406 320.339844 44.09375 319.742188 43.773438 C 319.144531 43.453125 318.535156 43.164062 317.910156 42.90625 C 317.285156 42.648438 316.648438 42.417969 316 42.222656 C 315.351562 42.027344 314.695312 41.863281 314.03125 41.730469 C 313.367188 41.597656 312.699219 41.5 312.027344 41.433594 C 311.351562 41.367188 310.675781 41.332031 310 41.332031 Z M 62 41.332031 " fill-opacity="1" fill-rule="nonzero"/><path fill="#000000" d="M 103.332031 289.332031 C 102.65625 289.332031 101.980469 289.300781 101.308594 289.234375 C 100.632812 289.167969 99.964844 289.066406 99.300781 288.9375 C 98.636719 288.804688 97.980469 288.640625 97.335938 288.445312 C 96.6875 288.246094 96.050781 288.019531 95.425781 287.761719 C 94.800781 287.5 94.1875 287.210938 93.589844 286.894531 C 92.996094 286.574219 92.414062 286.226562 91.851562 285.851562 C 91.289062 285.472656 90.746094 285.070312 90.222656 284.640625 C 89.699219 284.210938 89.199219 283.757812 88.71875 283.28125 C 88.242188 282.800781 87.789062 282.300781 87.359375 281.777344 C 86.929688 281.253906 86.527344 280.710938 86.148438 280.148438 C 85.773438 279.585938 85.425781 279.003906 85.105469 278.410156 C 84.789062 277.8125 84.5 277.199219 84.238281 276.574219 C 83.980469 275.949219 83.753906 275.3125 83.554688 274.664062 C 83.359375 274.019531 83.195312 273.363281 83.0625 272.699219 C 82.933594 272.035156 82.832031 271.367188 82.765625 270.691406 C 82.699219 270.019531 82.667969 269.34375 82.667969 268.667969 L 82.667969 165.332031 C 82.667969 164.65625 82.699219 163.980469 82.765625 163.308594 C 82.832031 162.632812 82.933594 161.964844 83.0625 161.300781 C 83.195312 160.636719 83.359375 159.980469 83.554688 159.335938 C 83.753906 158.6875 83.980469 158.050781 84.238281 157.425781 C 84.5 156.800781 84.789062 156.1875 85.105469 155.589844 C 85.425781 154.996094 85.773438 154.414062 86.148438 153.851562 C 86.527344 153.289062 86.929688 152.746094 87.359375 152.222656 C 87.789062 151.699219 88.242188 151.199219 88.71875 150.71875 C 89.199219 150.242188 89.699219 149.789062 90.222656 149.359375 C 90.746094 148.929688 91.289062 148.527344 91.851562 148.148438 C 92.414062 147.773438 92.996094 147.425781 93.589844 147.105469 C 94.1875 146.789062 94.800781 146.5 95.425781 146.238281 C 96.050781 145.980469 96.6875 145.753906 97.335938 145.554688 C 97.980469 145.359375 98.636719 145.195312 99.300781 145.0625 C 99.964844 144.933594 100.632812 144.832031 101.308594 144.765625 C 101.980469 144.699219 102.65625 144.667969 103.332031 144.667969 C 104.011719 144.667969 104.683594 144.699219 105.359375 144.765625 C 106.03125 144.832031 106.703125 144.933594 107.363281 145.0625 C 108.027344 145.195312 108.683594 145.359375 109.332031 145.554688 C 109.980469 145.753906 110.617188 145.980469 111.242188 146.238281 C 111.867188 146.5 112.480469 146.789062 113.074219 147.105469 C 113.671875 147.425781 114.253906 147.773438 114.816406 148.148438 C 115.378906 148.527344 115.921875 148.929688 116.445312 149.359375 C 116.96875 149.789062 117.46875 150.242188 117.945312 150.71875 C 118.425781 151.199219 118.878906 151.699219 119.308594 152.222656 C 119.738281 152.746094 120.140625 153.289062 120.515625 153.851562 C 120.894531 154.414062 121.242188 154.996094 121.558594 155.589844 C 121.878906 156.1875 122.167969 156.800781 122.425781 157.425781 C 122.6875 158.050781 122.914062 158.6875 123.109375 159.335938 C 123.304688 159.980469 123.472656 160.636719 123.601562 161.300781 C 123.734375 161.964844 123.835938 162.632812 123.902344 163.308594 C 123.96875 163.980469 124 164.65625 124 165.332031 L 124 268.667969 C 124 269.34375 123.96875 270.019531 123.902344 270.691406 C 123.835938 271.367188 123.734375 272.035156 123.601562 272.699219 C 123.472656 273.363281 123.304688 274.019531 123.109375 274.664062 C 122.914062 275.3125 122.6875 275.949219 122.425781 276.574219 C 122.167969 277.199219 121.878906 277.8125 121.558594 278.410156 C 121.242188 279.003906 120.894531 279.585938 120.515625 280.148438 C 120.140625 280.710938 119.738281 281.253906 119.308594 281.777344 C 118.878906 282.300781 118.425781 282.800781 117.945312 283.28125 C 117.46875 283.757812 116.96875 284.210938 116.445312 284.640625 C 115.921875 285.070312 115.378906 285.472656 114.816406 285.851562 C 114.253906 286.226562 113.671875 286.574219 113.074219 286.894531 C 112.480469 287.210938 111.867188 287.5 111.242188 287.761719 C 110.617188 288.019531 109.980469 288.246094 109.332031 288.445312 C 108.683594 288.640625 108.027344 288.804688 107.363281 288.9375 C 106.703125 289.066406 106.03125 289.167969 105.359375 289.234375 C 104.683594 289.300781 104.011719 289.332031 103.332031 289.332031 Z M 103.332031 289.332031 " fill-opacity="1" fill-rule="nonzero"/><path fill="#000000" d="M 103.332031 124.207031 C 102.65625 124.207031 101.980469 124.175781 101.304688 124.113281 C 100.628906 124.046875 99.960938 123.949219 99.292969 123.820312 C 98.628906 123.6875 97.972656 123.527344 97.324219 123.332031 C 96.675781 123.136719 96.035156 122.910156 95.410156 122.652344 C 94.78125 122.394531 94.167969 122.105469 93.570312 121.789062 C 92.972656 121.472656 92.390625 121.125 91.824219 120.75 C 91.261719 120.375 90.714844 119.972656 90.191406 119.546875 C 89.664062 119.117188 89.160156 118.664062 88.679688 118.1875 C 88.199219 117.710938 87.742188 117.207031 87.3125 116.6875 C 86.878906 116.164062 86.476562 115.621094 86.097656 115.058594 C 85.71875 114.496094 85.367188 113.917969 85.046875 113.320312 C 84.722656 112.722656 84.433594 112.113281 84.171875 111.488281 C 83.910156 110.863281 83.679688 110.226562 83.480469 109.578125 C 83.28125 108.929688 83.113281 108.273438 82.976562 107.609375 C 82.84375 106.945312 82.742188 106.277344 82.671875 105.601562 C 82.601562 104.929688 82.566406 104.25 82.5625 103.574219 C 82.5625 102.894531 82.589844 102.21875 82.65625 101.546875 C 82.71875 100.871094 82.816406 100.199219 82.945312 99.535156 C 83.074219 98.871094 83.234375 98.210938 83.429688 97.5625 C 83.625 96.914062 83.847656 96.273438 84.105469 95.648438 C 84.363281 95.019531 84.648438 94.40625 84.964844 93.808594 C 85.28125 93.207031 85.628906 92.625 86 92.058594 C 86.375 91.496094 86.777344 90.949219 87.203125 90.421875 C 87.628906 89.898438 88.082031 89.394531 88.558594 88.910156 C 89.035156 88.429688 89.535156 87.972656 90.058594 87.539062 C 90.578125 87.105469 91.121094 86.699219 91.683594 86.320312 C 92.246094 85.941406 92.824219 85.589844 93.417969 85.269531 C 94.015625 84.945312 94.625 84.652344 95.25 84.390625 C 95.875 84.128906 96.511719 83.894531 97.160156 83.695312 C 97.808594 83.496094 98.460938 83.328125 99.125 83.191406 C 99.789062 83.054688 100.460938 82.953125 101.132812 82.882812 C 101.808594 82.8125 102.484375 82.773438 103.160156 82.769531 C 103.839844 82.765625 104.515625 82.796875 105.191406 82.859375 C 105.867188 82.921875 106.535156 83.015625 107.203125 83.144531 C 107.867188 83.273438 108.523438 83.433594 109.175781 83.625 C 109.824219 83.820312 110.464844 84.042969 111.089844 84.296875 C 111.71875 84.554688 112.332031 84.839844 112.933594 85.15625 C 113.53125 85.46875 114.117188 85.816406 114.679688 86.1875 C 115.246094 86.5625 115.792969 86.960938 116.320312 87.386719 C 116.847656 87.8125 117.351562 88.265625 117.835938 88.742188 C 118.316406 89.21875 118.773438 89.714844 119.207031 90.238281 C 119.640625 90.757812 120.050781 91.300781 120.429688 91.859375 C 120.808594 92.421875 121.160156 93 121.484375 93.59375 C 121.808594 94.191406 122.101562 94.800781 122.367188 95.425781 C 122.628906 96.050781 122.863281 96.683594 123.066406 97.332031 C 123.265625 97.980469 123.433594 98.636719 123.574219 99.296875 C 123.710938 99.960938 123.8125 100.632812 123.886719 101.304688 C 123.957031 101.980469 123.996094 102.65625 124 103.332031 L 124 103.539062 C 124 104.21875 123.96875 104.890625 123.902344 105.566406 C 123.835938 106.238281 123.734375 106.90625 123.601562 107.570312 C 123.472656 108.234375 123.304688 108.890625 123.109375 109.539062 C 122.914062 110.1875 122.6875 110.824219 122.425781 111.449219 C 122.167969 112.074219 121.878906 112.683594 121.558594 113.28125 C 121.242188 113.878906 120.894531 114.457031 120.515625 115.023438 C 120.140625 115.585938 119.738281 116.128906 119.308594 116.652344 C 118.878906 117.175781 118.425781 117.675781 117.945312 118.152344 C 117.46875 118.632812 116.96875 119.085938 116.445312 119.515625 C 115.921875 119.945312 115.378906 120.347656 114.816406 120.722656 C 114.253906 121.101562 113.671875 121.445312 113.074219 121.765625 C 112.480469 122.085938 111.867188 122.375 111.242188 122.632812 C 110.617188 122.890625 109.980469 123.121094 109.332031 123.316406 C 108.683594 123.511719 108.027344 123.675781 107.363281 123.808594 C 106.703125 123.941406 106.03125 124.039062 105.359375 124.105469 C 104.683594 124.171875 104.011719 124.207031 103.332031 124.207031 Z M 103.332031 124.207031 " fill-opacity="1" fill-rule="nonzero"/><path fill="#000000" d="M 186 289.332031 C 185.324219 289.332031 184.648438 289.300781 183.972656 289.234375 C 183.300781 289.167969 182.632812 289.066406 181.96875 288.9375 C 181.304688 288.804688 180.648438 288.640625 180 288.445312 C 179.351562 288.246094 178.714844 288.019531 178.089844 287.761719 C 177.464844 287.5 176.855469 287.210938 176.257812 286.894531 C 175.660156 286.574219 175.082031 286.226562 174.519531 285.851562 C 173.957031 285.472656 173.414062 285.070312 172.890625 284.640625 C 172.367188 284.210938 171.863281 283.757812 171.386719 283.28125 C 170.90625 282.800781 170.453125 282.300781 170.023438 281.777344 C 169.59375 281.253906 169.191406 280.710938 168.816406 280.148438 C 168.441406 279.585938 168.09375 279.003906 167.773438 278.410156 C 167.453125 277.8125 167.164062 277.199219 166.90625 276.574219 C 166.648438 275.949219 166.417969 275.3125 166.222656 274.664062 C 166.027344 274.019531 165.863281 273.363281 165.730469 272.699219 C 165.597656 272.035156 165.5 271.367188 165.433594 270.691406 C 165.367188 270.019531 165.332031 269.34375 165.332031 268.667969 L 165.332031 165.332031 C 165.332031 164.65625 165.367188 163.980469 165.433594 163.308594 C 165.5 162.632812 165.597656 161.964844 165.730469 161.300781 C 165.863281 160.636719 166.027344 159.980469 166.222656 159.335938 C 166.417969 158.6875 166.648438 158.050781 166.90625 157.425781 C 167.164062 156.800781 167.453125 156.1875 167.773438 155.589844 C 168.09375 154.996094 168.441406 154.414062 168.816406 153.851562 C 169.191406 153.289062 169.59375 152.746094 170.023438 152.222656 C 170.453125 151.699219 170.90625 151.199219 171.386719 150.71875 C 171.863281 150.242188 172.367188 149.789062 172.890625 149.359375 C 173.414062 148.929688 173.957031 148.527344 174.519531 148.148438 C 175.082031 147.773438 175.660156 147.425781 176.257812 147.105469 C 176.855469 146.789062 177.464844 146.5 178.089844 146.238281 C 178.714844 145.980469 179.351562 145.753906 180 145.554688 C 180.648438 145.359375 181.304688 145.195312 181.96875 145.0625 C 182.632812 144.933594 183.300781 144.832031 183.972656 144.765625 C 184.648438 144.699219 185.324219 144.667969 186 144.667969 C 186.675781 144.667969 187.351562 144.699219 188.027344 144.765625 C 188.699219 144.832031 189.367188 144.933594 190.03125 145.0625 C 190.695312 145.195312 191.351562 145.359375 192 145.554688 C 192.648438 145.753906 193.285156 145.980469 193.910156 146.238281 C 194.535156 146.5 195.144531 146.789062 195.742188 147.105469 C 196.339844 147.425781 196.917969 147.773438 197.480469 148.148438 C 198.042969 148.527344 198.585938 148.929688 199.109375 149.359375 C 199.632812 149.789062 200.136719 150.242188 200.613281 150.71875 C 201.09375 151.199219 201.546875 151.699219 201.976562 152.222656 C 202.40625 152.746094 202.808594 153.289062 203.183594 153.851562 C 203.558594 154.414062 203.90625 154.996094 204.226562 155.589844 C 204.546875 156.1875 204.835938 156.800781 205.09375 157.425781 C 205.351562 158.050781 205.582031 158.6875 205.777344 159.335938 C 205.972656 159.980469 206.136719 160.636719 206.269531 161.300781 C 206.402344 161.964844 206.5 162.632812 206.566406 163.308594 C 206.632812 163.980469 206.667969 164.65625 206.667969 165.332031 L 206.667969 268.667969 C 206.667969 269.34375 206.632812 270.019531 206.566406 270.691406 C 206.5 271.367188 206.402344 272.035156 206.269531 272.699219 C 206.136719 273.363281 205.972656 274.019531 205.777344 274.664062 C 205.582031 275.3125 205.351562 275.949219 205.09375 276.574219 C 204.835938 277.199219 204.546875 277.8125 204.226562 278.410156 C 203.90625 279.003906 203.558594 279.585938 203.183594 280.148438 C 202.808594 280.710938 202.40625 281.253906 201.976562 281.777344 C 201.546875 282.300781 201.09375 282.800781 200.613281 283.28125 C 200.136719 283.757812 199.632812 284.210938 199.109375 284.640625 C 198.585938 285.070312 198.042969 285.472656 197.480469 285.851562 C 196.917969 286.226562 196.339844 286.574219 195.742188 286.894531 C 195.144531 287.210938 194.535156 287.5 193.910156 287.761719 C 193.285156 288.019531 192.648438 288.246094 192 288.445312 C 191.351562 288.640625 190.695312 288.804688 190.03125 288.9375 C 189.367188 289.066406 188.699219 289.167969 188.027344 289.234375 C 187.351562 289.300781 186.675781 289.332031 186 289.332031 Z M 186 289.332031 " fill-opacity="1" fill-rule="nonzero"/><path fill="#000000" d="M 268.667969 289.332031 C 267.988281 289.332031 267.316406 289.300781 266.640625 289.234375 C 265.96875 289.167969 265.296875 289.066406 264.636719 288.9375 C 263.972656 288.804688 263.316406 288.640625 262.667969 288.445312 C 262.019531 288.246094 261.382812 288.019531 260.757812 287.761719 C 260.132812 287.5 259.519531 287.210938 258.925781 286.894531 C 258.328125 286.574219 257.746094 286.226562 257.183594 285.851562 C 256.621094 285.472656 256.078125 285.070312 255.554688 284.640625 C 255.03125 284.210938 254.53125 283.757812 254.054688 283.28125 C 253.574219 282.800781 253.121094 282.300781 252.691406 281.777344 C 252.261719 281.253906 251.859375 280.710938 251.484375 280.148438 C 251.105469 279.585938 250.757812 279.003906 250.441406 278.410156 C 250.121094 277.8125 249.832031 277.199219 249.574219 276.574219 C 249.3125 275.949219 249.085938 275.3125 248.890625 274.664062 C 248.695312 274.019531 248.527344 273.363281 248.398438 272.699219 C 248.265625 272.035156 248.164062 271.367188 248.097656 270.691406 C 248.03125 270.019531 248 269.34375 248 268.667969 L 248 206.667969 C 248 205.988281 247.96875 205.316406 247.902344 204.640625 C 247.835938 203.96875 247.734375 203.296875 247.601562 202.636719 C 247.472656 201.972656 247.304688 201.316406 247.109375 200.667969 C 246.914062 200.019531 246.6875 199.382812 246.425781 198.757812 C 246.167969 198.132812 245.878906 197.519531 245.558594 196.925781 C 245.242188 196.328125 244.894531 195.746094 244.515625 195.183594 C 244.140625 194.621094 243.738281 194.078125 243.308594 193.554688 C 242.878906 193.03125 242.425781 192.53125 241.945312 192.054688 C 241.46875 191.574219 240.96875 191.121094 240.445312 190.691406 C 239.921875 190.261719 239.378906 189.859375 238.816406 189.484375 C 238.253906 189.105469 237.671875 188.757812 237.074219 188.441406 C 236.480469 188.121094 235.867188 187.832031 235.242188 187.574219 C 234.617188 187.3125 233.980469 187.085938 233.332031 186.890625 C 232.683594 186.695312 232.027344 186.527344 231.363281 186.398438 C 230.703125 186.265625 230.03125 186.164062 229.359375 186.097656 C 228.683594 186.03125 228.011719 186 227.332031 186 C 226.65625 186 225.980469 186.03125 225.308594 186.097656 C 224.632812 186.164062 223.964844 186.265625 223.300781 186.398438 C 222.636719 186.527344 221.980469 186.695312 221.335938 186.890625 C 220.6875 187.085938 220.050781 187.3125 219.425781 187.574219 C 218.800781 187.832031 218.1875 188.121094 217.589844 188.441406 C 216.996094 188.757812 216.414062 189.105469 215.851562 189.484375 C 215.289062 189.859375 214.746094 190.261719 214.222656 190.691406 C 213.699219 191.121094 213.199219 191.574219 212.71875 192.054688 C 212.242188 192.53125 211.789062 193.03125 211.359375 193.554688 C 210.929688 194.078125 210.527344 194.621094 210.148438 195.183594 C 209.773438 195.746094 209.425781 196.328125 209.105469 196.925781 C 208.789062 197.519531 208.5 198.132812 208.238281 198.757812 C 207.980469 199.382812 207.753906 200.019531 207.554688 200.667969 C 207.359375 201.316406 207.195312 201.972656 207.0625 202.636719 C 206.933594 203.296875 206.832031 203.96875 206.765625 204.640625 C 206.699219 205.316406 206.667969 205.988281 206.667969 206.667969 C 206.667969 207.34375 206.632812 208.019531 206.566406 208.691406 C 206.5 209.367188 206.402344 210.035156 206.269531 210.699219 C 206.136719 211.363281 205.972656 212.019531 205.777344 212.664062 C 205.582031 213.3125 205.351562 213.949219 205.09375 214.574219 C 204.835938 215.199219 204.546875 215.8125 204.226562 216.410156 C 203.90625 217.003906 203.558594 217.585938 203.183594 218.148438 C 202.808594 218.710938 202.40625 219.253906 201.976562 219.777344 C 201.546875 220.300781 201.09375 220.800781 200.613281 221.28125 C 200.136719 221.757812 199.632812 222.210938 199.109375 222.640625 C 198.585938 223.070312 198.042969 223.472656 197.480469 223.851562 C 196.917969 224.226562 196.339844 224.574219 195.742188 224.894531 C 195.144531 225.210938 194.535156 225.5 193.910156 225.761719 C 193.285156 226.019531 192.648438 226.246094 192 226.445312 C 191.351562 226.640625 190.695312 226.804688 190.03125 226.9375 C 189.367188 227.066406 188.699219 227.167969 188.027344 227.234375 C 187.351562 227.300781 186.675781 227.332031 186 227.332031 C 185.324219 227.332031 184.648438 227.300781 183.972656 227.234375 C 183.300781 227.167969 182.632812 227.066406 181.96875 226.9375 C 181.304688 226.804688 180.648438 226.640625 180 226.445312 C 179.351562 226.246094 178.714844 226.019531 178.089844 225.761719 C 177.464844 225.5 176.855469 225.210938 176.257812 224.894531 C 175.660156 224.574219 175.082031 224.226562 174.519531 223.851562 C 173.957031 223.472656 173.414062 223.070312 172.890625 222.640625 C 172.367188 222.210938 171.863281 221.757812 171.386719 221.28125 C 170.90625 220.800781 170.453125 220.300781 170.023438 219.777344 C 169.59375 219.253906 169.191406 218.710938 168.816406 218.148438 C 168.441406 217.585938 168.09375 217.003906 167.773438 216.410156 C 167.453125 215.8125 167.164062 215.199219 166.90625 214.574219 C 166.648438 213.949219 166.417969 213.3125 166.222656 212.664062 C 166.027344 212.019531 165.863281 211.363281 165.730469 210.699219 C 165.597656 210.035156 165.5 209.367188 165.433594 208.691406 C 165.367188 208.019531 165.332031 207.34375 165.332031 206.667969 C 165.332031 204.636719 165.433594 202.609375 165.632812 200.589844 C 165.832031 198.570312 166.128906 196.5625 166.523438 194.570312 C 166.921875 192.578125 167.414062 190.613281 168.003906 188.667969 C 168.59375 186.726562 169.277344 184.816406 170.054688 182.941406 C 170.828125 181.0625 171.695312 179.230469 172.652344 177.441406 C 173.613281 175.648438 174.652344 173.910156 175.78125 172.222656 C 176.910156 170.53125 178.117188 168.902344 179.40625 167.335938 C 180.695312 165.765625 182.058594 164.261719 183.492188 162.824219 C 184.929688 161.390625 186.429688 160.027344 188 158.738281 C 189.570312 157.453125 191.199219 156.242188 192.886719 155.117188 C 194.578125 153.988281 196.316406 152.945312 198.105469 151.988281 C 199.898438 151.03125 201.730469 150.164062 203.605469 149.386719 C 205.484375 148.609375 207.390625 147.925781 209.335938 147.335938 C 211.277344 146.746094 213.246094 146.253906 215.238281 145.859375 C 217.230469 145.460938 219.234375 145.164062 221.257812 144.964844 C 223.277344 144.765625 225.304688 144.667969 227.332031 144.667969 C 229.363281 144.667969 231.390625 144.765625 233.410156 144.964844 C 235.429688 145.164062 237.4375 145.460938 239.429688 145.859375 C 241.421875 146.253906 243.386719 146.746094 245.332031 147.335938 C 247.273438 147.925781 249.183594 148.609375 251.058594 149.386719 C 252.9375 150.164062 254.769531 151.03125 256.558594 151.988281 C 258.351562 152.945312 260.089844 153.988281 261.777344 155.117188 C 263.46875 156.242188 265.097656 157.453125 266.664062 158.738281 C 268.234375 160.027344 269.738281 161.390625 271.175781 162.824219 C 272.609375 164.261719 273.972656 165.765625 275.261719 167.335938 C 276.546875 168.902344 277.757812 170.53125 278.882812 172.222656 C 280.011719 173.910156 281.054688 175.648438 282.011719 177.441406 C 282.96875 179.230469 283.835938 181.0625 284.613281 182.941406 C 285.390625 184.816406 286.074219 186.726562 286.664062 188.667969 C 287.253906 190.613281 287.746094 192.578125 288.140625 194.570312 C 288.539062 196.5625 288.835938 198.570312 289.035156 200.589844 C 289.234375 202.609375 289.332031 204.636719 289.332031 206.667969 L 289.332031 268.667969 C 289.332031 269.34375 289.300781 270.019531 289.234375 270.691406 C 289.167969 271.367188 289.066406 272.035156 288.9375 272.699219 C 288.804688 273.363281 288.640625 274.019531 288.445312 274.664062 C 288.246094 275.3125 288.019531 275.949219 287.761719 276.574219 C 287.5 277.199219 287.210938 277.8125 286.894531 278.410156 C 286.574219 279.003906 286.226562 279.585938 285.851562 280.148438 C 285.472656 280.710938 285.070312 281.253906 284.640625 281.777344 C 284.210938 282.300781 283.757812 282.800781 283.28125 283.28125 C 282.800781 283.757812 282.300781 284.210938 281.777344 284.640625 C 281.253906 285.070312 280.710938 285.472656 280.148438 285.851562 C 279.585938 286.226562 279.003906 286.574219 278.410156 286.894531 C 277.8125 287.210938 277.199219 287.5 276.574219 287.761719 C 275.949219 288.019531 275.3125 288.246094 274.664062 288.445312 C 274.019531 288.640625 273.363281 288.804688 272.699219 288.9375 C 272.035156 289.066406 271.367188 289.167969 270.691406 289.234375 C 270.019531 289.300781 269.34375 289.332031 268.667969 289.332031 Z M 268.667969 289.332031 " fill-opacity="1" fill-rule="nonzero"/></svg>