<svg xmlns="http://www.w3.org/2000/svg" xmlns:xlink="http://www.w3.org/1999/xlink" width="500" zoomAndPan="magnify" viewBox="0 0 375 374.999991" height="500" preserveAspectRatio="xMidYMid meet" version="1.0"><defs><clipPath id="2140d81d59"><path d="M 32.109375 193 L 214 193 L 214 375 L 32.109375 375 Z M 32.109375 193 " clip-rule="nonzero"/></clipPath><clipPath id="9fd344c78d"><path d="M 160 0 L 342.609375 0 L 342.609375 182 L 160 182 Z M 160 0 " clip-rule="nonzero"/></clipPath></defs><rect x="-37.5" width="450" fill="#ffffff" y="-37.499999" height="449.999989" fill-opacity="1"/><rect x="-37.5" width="450" fill="#ffffff" y="-37.499999" height="449.999989" fill-opacity="1"/><g clip-path="url(#2140d81d59)"><path stroke-linecap="round" transform="matrix(1.056572, 0, 0, 1.057529, -86.451405, -85.444154)" fill="none" stroke-linejoin="round" d="M 259.127834 349.453563 C 259.127834 350.447182 259.101954 351.444495 259.053892 352.441808 C 259.005829 353.435426 258.931887 354.429045 258.835763 355.422664 C 258.735941 356.416283 258.613937 357.402515 258.46975 358.388746 C 258.321867 359.374977 258.1518 360.357515 257.955854 361.336359 C 257.763605 362.315203 257.545476 363.286659 257.301468 364.254422 C 257.061157 365.218491 256.794966 366.178866 256.506592 367.135547 C 256.214522 368.088535 255.903966 369.034135 255.56753 369.972348 C 255.231094 370.91056 254.872476 371.841385 254.491675 372.761129 C 254.110874 373.684567 253.704194 374.59323 253.279028 375.494505 C 252.853862 376.39578 252.406513 377.285974 251.936982 378.165086 C 251.463753 379.044199 250.975737 379.91223 250.46184 380.769181 C 249.947944 381.622437 249.415562 382.464612 248.860998 383.295706 C 248.306433 384.123106 247.733384 384.939425 247.141848 385.737275 C 246.546616 386.538819 245.932898 387.325588 245.300694 388.093888 C 244.668491 388.865882 244.017802 389.619407 243.348628 390.358157 C 242.679453 391.096907 241.991793 391.820882 241.285648 392.526389 C 240.5832 393.228201 239.858569 393.915239 239.122847 394.587501 C 238.383428 395.25607 237.62922 395.90617 236.856527 396.537802 C 236.087531 397.173127 235.30005 397.786289 234.501477 398.37729 C 233.699207 398.971983 232.885846 399.544515 232.057696 400.098577 C 231.22585 400.65264 230.386609 401.188234 229.528883 401.697971 C 228.674853 402.211403 227.806036 402.702671 226.929824 403.171778 C 226.049915 403.644578 225.158915 404.091522 224.256824 404.516303 C 223.358429 404.944778 222.445247 405.347397 221.52467 405.727853 C 220.604093 406.112003 219.672425 406.470297 218.737059 406.806428 C 217.797997 407.14256 216.85154 407.452835 215.89769 407.744641 C 214.943839 408.032753 213.982594 408.298704 213.013955 408.538797 C 212.049013 408.782585 211.076676 409.000516 210.096946 409.196285 C 209.120912 409.38836 208.137485 409.561966 207.15036 409.706022 C 206.166933 409.853772 205.176111 409.975666 204.185289 410.071704 C 203.19077 410.171435 202.199949 410.24531 201.201733 410.293329 C 200.207214 410.341348 199.212695 410.367204 198.214479 410.367204 C 197.216263 410.367204 196.221744 410.341348 195.223528 410.293329 C 194.22901 410.24531 193.234491 410.171435 192.243669 410.071704 C 191.252847 409.975666 190.262026 409.853772 189.274901 409.706022 C 188.291473 409.561966 187.308046 409.38836 186.332013 409.196285 C 185.352282 409.000516 184.379946 408.782585 183.411307 408.538797 C 182.446365 408.298704 181.48512 408.032753 180.531269 407.744641 C 179.577418 407.452835 178.630961 407.14256 177.691899 406.806428 C 176.752837 406.470297 175.824866 406.112003 174.904289 405.727853 C 173.983712 405.347397 173.070529 404.944778 172.168438 404.516303 C 171.270043 404.091522 170.379043 403.644578 169.499134 403.171778 C 168.619225 402.702671 167.754105 402.211403 166.896379 401.697971 C 166.042349 401.188234 165.199412 400.65264 164.371262 400.098577 C 163.543113 399.544515 162.729751 398.971983 161.927482 398.37729 C 161.125212 397.786289 160.341427 397.173127 159.568734 396.537802 C 158.799738 395.90617 158.045531 395.25607 157.306111 394.587501 C 156.566692 393.915239 155.845759 393.228201 155.139613 392.526389 C 154.437165 391.820882 153.749505 391.096907 153.080331 390.358157 C 152.411156 389.619407 151.760467 388.865882 151.128264 388.093888 C 150.496061 387.325588 149.882343 386.538819 149.28711 385.737275 C 148.691878 384.939425 148.118828 384.123106 147.564263 383.295706 C 147.013396 382.464612 146.477317 381.622437 145.967118 380.769181 C 145.453222 379.91223 144.961508 379.044199 144.491977 378.165086 C 144.022445 377.285974 143.575097 376.39578 143.149931 375.494505 C 142.721068 374.59323 142.318084 373.684567 141.937283 372.761129 C 141.556482 371.841385 141.197864 370.91056 140.861428 369.972348 C 140.524993 369.034135 140.210739 368.088535 139.922366 367.135547 C 139.633992 366.178866 139.367802 365.218491 139.123793 364.254422 C 138.883482 363.286659 138.665353 362.315203 138.469407 361.336359 C 138.277158 360.357515 138.107092 359.374977 137.959208 358.388746 C 137.811324 357.402515 137.68932 356.416283 137.593195 355.422664 C 137.497071 354.429045 137.423129 353.435426 137.375067 352.441808 C 137.323307 351.444495 137.301125 350.447182 137.301125 349.453563 C 137.301125 348.456251 137.323307 347.458938 137.375067 346.461625 C 137.423129 345.468006 137.497071 344.474388 137.593195 343.480769 C 137.68932 342.490844 137.811324 341.500918 137.959208 340.514687 C 138.107092 339.528456 138.277158 338.545918 138.469407 337.567074 C 138.665353 336.591924 138.883482 335.616774 139.123793 334.652705 C 139.367802 333.684942 139.633992 332.724567 139.922366 331.767886 C 140.210739 330.814898 140.524993 329.869298 140.861428 328.931085 C 141.197864 327.992873 141.556482 327.062047 141.937283 326.142304 C 142.318084 325.218866 142.721068 324.310203 143.149931 323.408928 C 143.575097 322.507653 144.022445 321.617459 144.491977 320.738346 C 144.961508 319.859234 145.453222 318.991202 145.967118 318.134252 C 146.477317 317.280996 147.013396 316.438821 147.564263 315.611421 C 148.118828 314.780327 148.691878 313.967702 149.28711 313.166158 C 149.882343 312.364614 150.496061 311.577845 151.128264 310.809545 C 151.760467 310.037551 152.411156 309.284026 153.080331 308.545276 C 153.749505 307.806526 154.437165 307.082551 155.139613 306.380738 C 155.845759 305.675232 156.566692 304.988194 157.306111 304.315932 C 158.045531 303.647363 158.799738 302.997263 159.568734 302.365631 C 160.341427 301.734 161.125212 301.120837 161.927482 300.526143 C 162.729751 299.93145 163.543113 299.358918 164.371262 298.804856 C 165.199412 298.250793 166.042349 297.715199 166.896379 297.205462 C 167.754105 296.69203 168.619225 296.200762 169.499134 295.731655 C 170.379043 295.262549 171.270043 294.811911 172.168438 294.38713 C 173.070529 293.958655 173.983712 293.556036 174.904289 293.17558 C 175.824866 292.79143 176.752837 292.433136 177.691899 292.097005 C 178.630961 291.764567 179.577418 291.450598 180.531269 291.162486 C 181.48512 290.870679 182.446365 290.604729 183.411307 290.364636 C 184.379946 290.120848 185.352282 289.902917 186.332013 289.707148 C 187.308046 289.515073 188.291473 289.34516 189.274901 289.19741 C 190.262026 289.04966 191.252847 288.927767 192.243669 288.831729 C 193.234491 288.731998 194.22901 288.661817 195.223528 288.610104 C 196.221744 288.562085 197.216263 288.536229 198.214479 288.536229 C 199.212695 288.536229 200.207214 288.562085 201.201733 288.610104 C 202.199949 288.661817 203.19077 288.731998 204.185289 288.831729 C 205.176111 288.927767 206.166933 289.04966 207.15036 289.19741 C 208.137485 289.34516 209.120912 289.515073 210.096946 289.707148 C 211.076676 289.902917 212.049013 290.120848 213.013955 290.364636 C 213.982594 290.604729 214.943839 290.870679 215.89769 291.162486 C 216.85154 291.450598 217.797997 291.764567 218.737059 292.097005 C 219.672425 292.433136 220.604093 292.79143 221.52467 293.17558 C 222.445247 293.556036 223.358429 293.958655 224.256824 294.38713 C 225.158915 294.811911 226.049915 295.262549 226.929824 295.731655 C 227.806036 296.200762 228.674853 296.69203 229.528883 297.205462 C 230.386609 297.715199 231.22585 298.250793 232.057696 298.804856 C 232.885846 299.358918 233.699207 299.93145 234.501477 300.526143 C 235.30005 301.120837 236.087531 301.734 236.856527 302.365631 C 237.62922 302.997263 238.383428 303.647363 239.122847 304.315932 C 239.858569 304.988194 240.5832 305.675232 241.285648 306.380738 C 241.991793 307.082551 242.679453 307.806526 243.348628 308.545276 C 244.017802 309.284026 244.668491 310.037551 245.300694 310.809545 C 245.932898 311.577845 246.546616 312.364614 247.141848 313.166158 C 247.733384 313.967702 248.306433 314.780327 248.860998 315.611421 C 249.415562 316.438821 249.947944 317.280996 250.46184 318.134252 C 250.975737 318.991202 251.463753 319.859234 251.936982 320.738346 C 252.406513 321.617459 252.853862 322.507653 253.279028 323.408928 C 253.704194 324.310203 254.110874 325.218866 254.491675 326.142304 C 254.872476 327.062047 255.231094 327.992873 255.56753 328.931085 C 255.903966 329.869298 256.214522 330.814898 256.506592 331.767886 C 256.794966 332.724567 257.061157 333.684942 257.301468 334.652705 C 257.545476 335.616774 257.763605 336.591924 257.955854 337.567074 C 258.1518 338.545918 258.321867 339.528456 258.46975 340.514687 C 258.613937 341.500918 258.735941 342.490844 258.835763 343.480769 C 258.931887 344.474388 259.005829 345.468006 259.053892 346.461625 C 259.101954 347.458938 259.127834 348.456251 259.127834 349.453563 Z M 259.127834 349.453563 " stroke="#231f20" stroke-width="50" stroke-opacity="1" stroke-miterlimit="10"/></g><g clip-path="url(#9fd344c78d)"><path stroke-linecap="round" transform="matrix(1.056572, 0, 0, 1.057529, -86.451405, -85.444154)" fill="none" stroke-linejoin="round" d="M 380.954542 166.708948 C 380.954542 167.706261 380.93236 168.703573 380.884297 169.697192 C 380.832538 170.694505 380.758596 171.688124 380.662472 172.681743 C 380.566347 173.671668 380.444343 174.661593 380.296459 175.647825 C 380.148575 176.634056 379.978509 177.616594 379.78626 178.595437 C 379.590314 179.570588 379.372185 180.542044 379.131874 181.509807 C 378.887866 182.477569 378.621675 183.437944 378.333301 184.390932 C 378.044928 185.347613 377.730674 186.293214 377.394239 187.231426 C 377.057803 188.169639 376.699185 189.100464 376.318384 190.020208 C 375.937583 190.943646 375.534599 191.852308 375.105736 192.753583 C 374.68057 193.654858 374.233222 194.545052 373.76369 195.424165 C 373.294159 196.303278 372.802445 197.171309 372.288549 198.024565 C 371.77835 198.881516 371.242271 199.723691 370.691404 200.551091 C 370.136839 201.382185 369.563789 202.19481 368.968557 202.996354 C 368.373324 203.797898 367.763304 204.584666 367.127403 205.352967 C 366.4952 206.12496 365.844511 206.878485 365.175336 207.617236 C 364.506162 208.355986 363.818502 209.076267 363.116054 209.781773 C 362.409908 210.48728 361.688975 211.174317 360.949556 211.842886 C 360.210136 212.515149 359.455929 213.165249 358.686933 213.79688 C 357.91424 214.428512 357.130455 215.041674 356.328185 215.636368 C 355.525916 216.231062 354.712555 216.803593 353.884405 217.357656 C 353.056255 217.911718 352.213318 218.443618 351.359288 218.95705 C 350.501562 219.470481 349.636442 219.96175 348.756533 220.430856 C 347.876624 220.899963 346.985624 221.3506 346.087229 221.775381 C 345.185138 222.200163 344.271955 222.606475 343.351378 222.986932 C 342.430801 223.367388 341.50283 223.725682 340.563768 224.061813 C 339.624706 224.397944 338.678249 224.711913 337.724398 225.000026 C 336.770547 225.291832 335.809302 225.557782 334.84436 225.797876 C 333.875721 226.041663 332.903385 226.259595 331.927352 226.455363 C 330.947621 226.647438 329.964194 226.817351 328.980766 226.965101 C 327.993641 227.109157 327.006517 227.234745 326.011998 227.330782 C 325.021176 227.42682 324.026657 227.500695 323.032139 227.552407 C 322.033923 227.600426 321.039404 227.622589 320.041188 227.622589 C 319.046669 227.622589 318.048453 227.600426 317.053934 227.552407 C 316.055718 227.500695 315.064897 227.42682 314.070378 227.330782 C 313.079556 227.234745 312.088734 227.109157 311.105307 226.965101 C 310.118182 226.817351 309.134755 226.647438 308.158721 226.455363 C 307.178991 226.259595 306.206654 226.041663 305.241712 225.797876 C 304.273073 225.557782 303.311828 225.291832 302.357978 225.000026 C 301.404127 224.711913 300.45767 224.397944 299.522305 224.061813 C 298.583242 223.725682 297.651574 223.367388 296.730997 222.986932 C 295.81042 222.606475 294.897238 222.200163 293.998843 221.775381 C 293.096752 221.3506 292.205752 220.899963 291.325843 220.430856 C 290.449631 219.96175 289.580814 219.470481 288.726784 218.95705 C 287.869058 218.443618 287.029817 217.911718 286.201668 217.357656 C 285.369821 216.803593 284.55646 216.231062 283.75419 215.636368 C 282.955617 215.041674 282.168136 214.428512 281.39914 213.79688 C 280.626447 213.165249 279.872239 212.515149 279.13282 211.842886 C 278.397098 211.174317 277.672467 210.48728 276.970019 209.781773 C 276.263874 209.076267 275.576214 208.355986 274.907039 207.617236 C 274.237865 206.878485 273.587176 206.12496 272.954973 205.352967 C 272.322769 204.584666 271.709051 203.797898 271.113819 202.996354 C 270.522284 202.19481 269.949234 201.382185 269.394669 200.551091 C 268.840105 199.723691 268.307723 198.881516 267.793827 198.024565 C 267.27993 197.171309 266.791914 196.303278 266.322382 195.424165 C 265.849154 194.545052 265.401805 193.654858 264.976639 192.753583 C 264.551473 191.852308 264.144793 190.943646 263.763992 190.020208 C 263.383191 189.100464 263.024573 188.169639 262.688137 187.231426 C 262.351701 186.293214 262.041145 185.347613 261.752772 184.390932 C 261.460701 183.437944 261.19451 182.477569 260.954199 181.509807 C 260.710191 180.542044 260.492062 179.570588 260.299813 178.595437 C 260.103867 177.616594 259.9338 176.634056 259.785917 175.647825 C 259.64173 174.661593 259.519726 173.671668 259.419904 172.681743 C 259.32378 171.688124 259.249838 170.694505 259.201775 169.697192 C 259.153713 168.703573 259.127834 167.706261 259.127834 166.708948 C 259.127834 165.711635 259.153713 164.718017 259.201775 163.720704 C 259.249838 162.727085 259.32378 161.729772 259.419904 160.739847 C 259.519726 159.746228 259.64173 158.759997 259.785917 157.773766 C 259.9338 156.787534 260.103867 155.804996 260.299813 154.826153 C 260.492062 153.847309 260.710191 152.875852 260.954199 151.90809 C 261.19451 150.940327 261.460701 149.979952 261.752772 149.026964 C 262.041145 148.073977 262.351701 147.128376 262.688137 146.190164 C 263.024573 145.248257 263.383191 144.321126 263.763992 143.397688 C 264.144793 142.477944 264.551473 141.565588 264.976639 140.664313 C 265.401805 139.763038 265.849154 138.872844 266.322382 137.993731 C 266.791914 137.114619 267.27993 136.250281 267.793827 135.393331 C 268.307723 134.540075 268.840105 133.697899 269.394669 132.866806 C 269.949234 132.039405 270.522284 131.223087 271.113819 130.425236 C 271.709051 129.623693 272.322769 128.836924 272.954973 128.06493 C 273.587176 127.29663 274.237865 126.543105 274.907039 125.804354 C 275.576214 125.065604 276.263874 124.341629 276.970019 123.636123 C 277.672467 122.930617 278.397098 122.243579 279.13282 121.57501 C 279.872239 120.906441 280.626447 120.256341 281.39914 119.621016 C 282.168136 118.989385 282.955617 118.376222 283.75419 117.785222 C 284.55646 117.190528 285.369821 116.614303 286.201668 116.06024 C 287.029817 115.506178 287.869058 114.974278 288.726784 114.460846 C 289.580814 113.951109 290.449631 113.45984 291.325843 112.98704 C 292.205752 112.517934 293.096752 112.07099 293.998843 111.646209 C 294.897238 111.217733 295.81042 110.815115 296.730997 110.430965 C 297.651574 110.050508 298.583242 109.692215 299.522305 109.356083 C 300.45767 109.019952 301.404127 108.709677 302.357978 108.417871 C 303.311828 108.129758 304.273073 107.863808 305.241712 107.62002 C 306.206654 107.379927 307.178991 107.161995 308.158721 106.966227 C 309.134755 106.770458 310.118182 106.600545 311.105307 106.456489 C 312.088734 106.308739 313.079556 106.186845 314.070378 106.090808 C 315.064897 105.991076 316.055718 105.917201 317.053934 105.869183 C 318.048453 105.821164 319.046669 105.795308 320.041188 105.795308 C 321.039404 105.795308 322.033923 105.821164 323.032139 105.869183 C 324.026657 105.917201 325.021176 105.991076 326.011998 106.090808 C 327.006517 106.186845 327.993641 106.308739 328.980766 106.456489 C 329.964194 106.600545 330.947621 106.770458 331.927352 106.966227 C 332.903385 107.161995 333.875721 107.379927 334.84436 107.62002 C 335.809302 107.863808 336.770547 108.129758 337.724398 108.417871 C 338.678249 108.709677 339.624706 109.019952 340.563768 109.356083 C 341.50283 109.692215 342.430801 110.050508 343.351378 110.430965 C 344.271955 110.815115 345.185138 111.217733 346.087229 111.646209 C 346.985624 112.07099 347.876624 112.517934 348.756533 112.98704 C 349.636442 113.45984 350.501562 113.951109 351.359288 114.460846 C 352.213318 114.974278 353.056255 115.506178 353.884405 116.06024 C 354.712555 116.614303 355.525916 117.190528 356.328185 117.785222 C 357.130455 118.376222 357.91424 118.989385 358.686933 119.621016 C 359.455929 120.256341 360.210136 120.906441 360.949556 121.57501 C 361.688975 122.243579 362.409908 122.930617 363.116054 123.636123 C 363.818502 124.341629 364.506162 125.065604 365.175336 125.804354 C 365.844511 126.543105 366.4952 127.29663 367.127403 128.06493 C 367.763304 128.836924 368.373324 129.623693 368.968557 130.425236 C 369.563789 131.223087 370.136839 132.039405 370.691404 132.866806 C 371.242271 133.697899 371.77835 134.540075 372.288549 135.393331 C 372.802445 136.250281 373.294159 137.114619 373.76369 137.993731 C 374.233222 138.872844 374.68057 139.763038 375.105736 140.664313 C 375.534599 141.565588 375.937583 142.477944 376.318384 143.397688 C 376.699185 144.321126 377.057803 145.248257 377.394239 146.190164 C 377.730674 147.128376 378.044928 148.073977 378.333301 149.026964 C 378.621675 149.979952 378.887866 150.940327 379.131874 151.90809 C 379.372185 152.875852 379.590314 153.847309 379.78626 154.826153 C 379.978509 155.804996 380.148575 156.787534 380.296459 157.773766 C 380.444343 158.759997 380.566347 159.746228 380.662472 160.739847 C 380.758596 161.729772 380.832538 162.727085 380.884297 163.720704 C 380.93236 164.718017 380.954542 165.711635 380.954542 166.708948 Z M 380.954542 166.708948 " stroke="#231f20" stroke-width="50" stroke-opacity="1" stroke-miterlimit="10"/></g><path stroke-linecap="round" transform="matrix(1.056572, 0, 0, 1.057529, -86.451405, -85.444154)" fill="none" stroke-linejoin="round" d="M 259.127834 349.453563 L 259.127834 166.708948 " stroke="#231f20" stroke-width="50" stroke-opacity="1" stroke-miterlimit="10"/><path stroke-linecap="round" transform="matrix(1.056572, 0, 0, 1.057529, -86.451405, -85.444154)" fill="none" stroke-linejoin="round" d="M 198.214479 410.367204 C 164.570905 410.367204 137.297428 383.096243 137.297428 349.453563 C 137.297428 315.810883 164.570905 288.539923 198.214479 288.539923 " stroke="#808285" stroke-width="20" stroke-opacity="1" stroke-miterlimit="10"/><path stroke-linecap="round" transform="matrix(1.056572, 0, 0, 1.057529, -86.451405, -85.444154)" fill="none" stroke-linejoin="round" d="M 259.127834 349.453563 C 259.127834 383.096243 231.858053 410.367204 198.214479 410.367204 " stroke="#808285" stroke-width="20" stroke-opacity="1" stroke-miterlimit="10"/><path stroke-linecap="round" transform="matrix(1.056572, 0, 0, 1.057529, -86.451405, -85.444154)" fill="none" stroke-linejoin="round" d="M 320.041188 227.622589 C 286.397614 227.622589 259.127834 200.351628 259.127834 166.708948 " stroke="#808285" stroke-width="20" stroke-opacity="1" stroke-miterlimit="10"/><path stroke-linecap="round" transform="matrix(1.056572, 0, 0, 1.057529, -86.451405, -85.444154)" fill="none" stroke-linejoin="round" d="M 259.127834 349.453563 L 259.127834 166.708948 " stroke="#808285" stroke-width="20" stroke-opacity="1" stroke-miterlimit="10"/></svg>