<svg xmlns="http://www.w3.org/2000/svg" xmlns:xlink="http://www.w3.org/1999/xlink" width="500" zoomAndPan="magnify" viewBox="0 0 375 374.999991" height="500" preserveAspectRatio="xMidYMid meet" version="1.0"><rect x="-37.5" width="450" fill="#ffffff" y="-37.499999" height="449.999989" fill-opacity="1"/><rect x="-37.5" width="450" fill="#ffffff" y="-37.499999" height="449.999989" fill-opacity="1"/><path fill="#000000" d="M 282.117188 141.535156 C 280.222656 129.371094 269.796875 120.683594 257.636719 120.683594 L 117.523438 120.683594 C 105.359375 120.683594 94.933594 129.527344 93.039062 141.535156 C 91.300781 152.75 89.5625 168.386719 89.5625 187.5 C 89.722656 206.613281 91.300781 222.25 93.039062 233.464844 C 94.933594 245.472656 105.359375 254.316406 117.523438 254.316406 L 257.476562 254.316406 C 269.640625 254.316406 280.222656 245.472656 281.960938 233.464844 C 283.699219 222.09375 285.4375 206.613281 285.4375 187.5 C 285.4375 168.386719 283.855469 152.75 282.117188 141.535156 Z M 166.808594 214.195312 L 166.808594 160.960938 L 216.40625 187.65625 Z M 166.808594 214.195312 " fill-opacity="1" fill-rule="nonzero"/><path fill="#000000" d="M 187.5 375 C 84.191406 375 0 290.964844 0 187.5 C 0 84.191406 84.191406 0 187.5 0 C 290.804688 0 375 84.191406 375 187.5 C 375 290.964844 290.964844 375 187.5 375 Z M 187.5 10.265625 C 89.722656 10.265625 10.265625 89.722656 10.265625 187.5 C 10.265625 285.277344 89.722656 364.734375 187.5 364.734375 C 285.277344 364.734375 364.734375 285.277344 364.734375 187.5 C 364.734375 89.722656 285.277344 10.265625 187.5 10.265625 Z M 187.5 10.265625 " fill-opacity="1" fill-rule="nonzero"/></svg>